<svg width="311" height="47" viewBox="0 0 311 47" fill="none" xmlns="http://www.w3.org/2000/svg"><path d="M36.9968 18.732h-5.814V30H29.6888V17.4h8.802V30H36.9968V18.732zM42.832 23.7C42.832 21.6 43.276 19.992 44.164 18.876 45.052 17.748 46.318 17.184 47.962 17.184 48.85 17.184 49.618 17.34 50.266 17.652 50.914 17.964 51.448 18.408 51.868 18.984 52.3 19.548 52.618 20.232 52.822 21.036 53.026 21.828 53.128 22.716 53.128 23.7 53.128 25.8 52.678 27.414 51.778 28.542 50.89 29.658 49.618 30.216 47.962 30.216 47.086 30.216 46.324 30.06 45.676 29.748 45.04 29.436 44.506 28.998 44.074 28.434 43.654 27.858 43.342 27.174 43.138 26.382 42.934 25.578 42.832 24.684 42.832 23.7zM44.416 23.7C44.416 24.396 44.482 25.056 44.614 25.68 44.758 26.304 44.974 26.856 45.262 27.336 45.55 27.804 45.916 28.182 46.36 28.47 46.816 28.746 47.35 28.884 47.962 28.884 49.078 28.884 49.954 28.464 50.59 27.624 51.226 26.772 51.544 25.464 51.544 23.7 51.544 23.016 51.472 22.362 51.328 21.738 51.196 21.102 50.98 20.55 50.68 20.082 50.392 19.602 50.02 19.224 49.564 18.948 49.12 18.66 48.586 18.516 47.962 18.516 46.858 18.516 45.988 18.942 45.352 19.794 44.728 20.634 44.416 21.936 44.416 23.7zM65.5227 29.478C65.1627 29.754 64.7067 29.946 64.1547 30.054 63.6027 30.162 63.0147 30.216 62.3907 30.216 61.6347 30.216 60.9267 30.09 60.2667 29.838 59.6067 29.574 59.0307 29.178 58.5387 28.65 58.0467 28.122 57.6567 27.45 57.3687 26.634 57.0807 25.806 56.9367 24.828 56.9367 23.7 56.9367 22.524 57.0927 21.528 57.4047 20.712 57.7287 19.884 58.1487 19.212 58.6647 18.696 59.1927 18.168 59.7807 17.784 60.4287 17.544 61.0767 17.304 61.7367 17.184 62.4087 17.184 63.1287 17.184 63.7167 17.226 64.1727 17.31 64.6287 17.382 65.0187 17.484 65.3427 17.616L64.9827 18.93C64.4067 18.654 63.5847 18.516 62.5167 18.516 62.0247 18.516 61.5387 18.606 61.0587 18.786 60.5787 18.966 60.1467 19.26 59.7627 19.668 59.3907 20.076 59.0907 20.61 58.8627 21.27 58.6347 21.93 58.5207 22.74 58.5207 23.7 58.5207 24.564 58.6287 25.32 58.8447 25.968 59.0607 26.616 59.3547 27.156 59.7267 27.588 60.1107 28.02 60.5547 28.344 61.0587 28.56 61.5747 28.776 62.1327 28.884 62.7327 28.884 63.2727 28.884 63.7407 28.83 64.1367 28.722 64.5447 28.614 64.8867 28.476 65.1627 28.308L65.5227 29.478zM79.2259 21.54 79.4059 19.65H79.3159L78.6319 21.378 75.3559 27.066H74.9059L71.4319 21.36 70.7839 19.65H70.6939L70.9459 21.522V30H69.5419V17.4H70.6579L74.5999 23.844 75.1939 25.248H75.2299L75.7879 23.808 79.5499 17.4H80.7199V30H79.2259V21.54zM85.0582 23.7C85.0582 21.6 85.5022 19.992 86.3902 18.876 87.2782 17.748 88.5442 17.184 90.1882 17.184 91.0762 17.184 91.8442 17.34 92.4922 17.652 93.1402 17.964 93.6742 18.408 94.0942 18.984 94.5262 19.548 94.8442 20.232 95.0482 21.036 95.2522 21.828 95.3542 22.716 95.3542 23.7 95.3542 25.8 94.9042 27.414 94.0042 28.542 93.1162 29.658 91.8442 30.216 90.1882 30.216 89.3122 30.216 88.5502 30.06 87.9022 29.748 87.2662 29.436 86.7322 28.998 86.3002 28.434 85.8802 27.858 85.5682 27.174 85.3642 26.382 85.1602 25.578 85.0582 24.684 85.0582 23.7zM86.6422 23.7C86.6422 24.396 86.7082 25.056 86.8402 25.68 86.9842 26.304 87.2002 26.856 87.4882 27.336 87.7762 27.804 88.1422 28.182 88.5862 28.47 89.0422 28.746 89.5762 28.884 90.1882 28.884 91.3042 28.884 92.1802 28.464 92.8162 27.624 93.4522 26.772 93.7702 25.464 93.7702 23.7 93.7702 23.016 93.6982 22.362 93.5542 21.738 93.4222 21.102 93.2062 20.55 92.9062 20.082 92.6182 19.602 92.2462 19.224 91.7902 18.948 91.3462 18.66 90.8122 18.516 90.1882 18.516 89.0842 18.516 88.2142 18.942 87.5782 19.794 86.9542 20.634 86.6422 21.936 86.6422 23.7zM106.96 18.732H103.036V30H101.542V18.732H97.6176V17.4H106.96V18.732zM110.608 17.526C111.064 17.418 111.556 17.346 112.084 17.31 112.612 17.274 113.134 17.256 113.65 17.256 114.202 17.256 114.76 17.31 115.324 17.418 115.9 17.526 116.422 17.724 116.89 18.012 117.358 18.3 117.736 18.696 118.024 19.2 118.324 19.704 118.474 20.346 118.474 21.126 118.474 21.894 118.336 22.542 118.06 23.07 117.784 23.598 117.418 24.03 116.962 24.366 116.506 24.69 115.984 24.924 115.396 25.068 114.808 25.212 114.202 25.284 113.578 25.284 113.518 25.284 113.416 25.284 113.272 25.284 113.14 25.284 112.996 25.284 112.84 25.284 112.696 25.272 112.552 25.26 112.408 25.248 112.264 25.236 112.162 25.224 112.102 25.212V30H110.608V17.526zM113.686 18.552C113.374 18.552 113.074 18.558 112.786 18.57 112.498 18.582 112.27 18.612 112.102 18.66V23.88C112.162 23.904 112.258 23.922 112.39 23.934 112.522 23.934 112.66 23.94 112.804 23.952 112.948 23.952 113.086 23.952 113.218 23.952 113.35 23.952 113.446 23.952 113.506 23.952 113.914 23.952 114.316 23.916 114.712 23.844 115.12 23.76 115.486 23.616 115.81 23.412 116.134 23.208 116.392 22.92 116.584 22.548 116.788 22.176 116.89 21.702 116.89 21.126 116.89 20.634 116.794 20.226 116.602 19.902 116.422 19.566 116.176 19.302 115.864 19.11 115.564 18.906 115.222 18.762 114.838 18.678 114.454 18.594 114.07 18.552 113.686 18.552zM122.463 17.4H129.321V18.732H123.957v4.122H128.871V24.186H123.957V28.668H129.411V30H122.463V17.4zM142.049 18.732H138.125V30H136.631V18.732H132.707V17.4H142.049V18.732zM145.697 17.4H147.191V22.296C147.251 22.284 147.353 22.272 147.497 22.26 147.641 22.236 147.797 22.218 147.965 22.206 148.133 22.194 148.307 22.182 148.487 22.17 148.667 22.158 148.829 22.152 148.973 22.152 149.549 22.152 150.107 22.212 150.647 22.332 151.199 22.44 151.685 22.638 152.105 22.926 152.537 23.214 152.885 23.604 153.149 24.096 153.413 24.576 153.545 25.188 153.545 25.932 153.545 26.652 153.419 27.276 153.167 27.804 152.915 28.332 152.567 28.77 152.123 29.118 151.679 29.466 151.157 29.724 150.557 29.892 149.969 30.06 149.327 30.144 148.631 30.144 148.463 30.144 148.259 30.138 148.019 30.126 147.779 30.126 147.521 30.114 147.245 30.09 146.981 30.078 146.711 30.054 146.435 30.018 146.171 29.982 145.925 29.934 145.697 29.874V17.4zM148.829 28.848C149.261 28.848 149.663 28.794 150.035 28.686 150.419 28.566 150.755 28.392 151.043 28.164 151.331 27.924 151.553 27.63 151.709 27.282 151.877 26.922 151.961 26.508 151.961 26.04 151.961 25.536 151.871 25.116 151.691 24.78 151.511 24.444 151.271 24.18 150.971 23.988 150.683 23.784 150.347 23.646 149.963 23.574 149.579 23.49 149.183 23.448 148.775 23.448 148.667 23.448 148.535 23.454 148.379 23.466 148.223 23.478 148.067 23.49 147.911 23.502 147.755 23.514 147.611 23.532 147.479 23.556 147.347 23.58 147.251 23.598 147.191 23.61V28.74C147.359 28.776 147.599 28.806 147.911 28.83 148.223 28.842 148.529 28.848 148.829 28.848zM165.735 24.168H164.889V30H163.395V17.4H164.889V23.268L165.699 23.016 169.929 17.4H171.657L167.445 22.818 166.689 23.412 167.607 24.132 172.215 30H170.325L165.735 24.168zM175.308 23.7C175.308 21.6 175.752 19.992 176.64 18.876 177.528 17.748 178.794 17.184 180.438 17.184 181.326 17.184 182.094 17.34 182.742 17.652 183.39 17.964 183.924 18.408 184.344 18.984 184.776 19.548 185.094 20.232 185.298 21.036 185.502 21.828 185.604 22.716 185.604 23.7 185.604 25.8 185.154 27.414 184.254 28.542 183.366 29.658 182.094 30.216 180.438 30.216 179.562 30.216 178.8 30.06 178.152 29.748 177.516 29.436 176.982 28.998 176.55 28.434 176.13 27.858 175.818 27.174 175.614 26.382 175.41 25.578 175.308 24.684 175.308 23.7zM176.892 23.7C176.892 24.396 176.958 25.056 177.09 25.68 177.234 26.304 177.45 26.856 177.738 27.336 178.026 27.804 178.392 28.182 178.836 28.47 179.292 28.746 179.826 28.884 180.438 28.884 181.554 28.884 182.43 28.464 183.066 27.624 183.702 26.772 184.02 25.464 184.02 23.7 184.02 23.016 183.948 22.362 183.804 21.738 183.672 21.102 183.456 20.55 183.156 20.082 182.868 19.602 182.496 19.224 182.04 18.948 181.596 18.66 181.062 18.516 180.438 18.516 179.334 18.516 178.464 18.942 177.828 19.794 177.204 20.634 176.892 21.936 176.892 23.7zM196.472 18.732H192.71C192.59 21.132 192.428 23.13 192.224 24.726 192.032 26.31 191.738 27.546 191.342 28.434 191.078 29.01 190.766 29.43 190.406 29.694 190.046 29.958 189.656 30.09 189.236 30.09 189.02 30.09 188.834 30.072 188.678 30.036 188.522 30.012 188.372 29.97 188.228 29.91L188.426 28.614C188.546 28.65 188.672 28.668 188.804 28.668 189.008 28.668 189.206 28.602 189.398 28.47 189.602 28.338 189.8 28.092 189.992 27.732 190.16 27.408 190.316 26.976 190.46 26.436 190.616 25.896 190.748 25.212 190.856 24.384 190.976 23.556 191.072 22.572 191.144 21.432 191.216 20.28 191.27 18.936 191.306 17.4H197.966V30H196.472V18.732zM209.504 18.732H205.742C205.622 21.132 205.46 23.13 205.256 24.726 205.064 26.31 204.77 27.546 204.374 28.434 204.11 29.01 203.798 29.43 203.438 29.694 203.078 29.958 202.688 30.09 202.268 30.09 202.052 30.09 201.866 30.072 201.71 30.036 201.554 30.012 201.404 29.97 201.26 29.91L201.458 28.614C201.578 28.65 201.704 28.668 201.836 28.668 202.04 28.668 202.238 28.602 202.43 28.47 202.634 28.338 202.832 28.092 203.024 27.732 203.192 27.408 203.348 26.976 203.492 26.436 203.648 25.896 203.78 25.212 203.888 24.384 204.008 23.556 204.104 22.572 204.176 21.432 204.248 20.28 204.302 18.936 204.338 17.4H210.998V30H209.504V18.732zM215.859 17.4H222.717V18.732H217.353v4.122H222.267V24.186H217.353V28.668H222.807V30H215.859V17.4zM229.649 24.168H228.803V30H227.309V17.4H228.803V23.268L229.613 23.016 233.843 17.4H235.571L231.359 22.818 230.603 23.412 231.521 24.132 236.129 30H234.239L229.649 24.168zM250.427 32.322H249.401L249.131 30H240.095V17.4H241.589V28.668H247.259V17.4H248.753V28.668H250.427V32.322zM261.957 21.468 262.065 20.028H261.993L261.219 21.504 255.135 30H254.253V17.4H255.747v8.64L255.621 27.462H255.693L256.485 25.986 262.569 17.4H263.451V30H261.957V21.468zM269.799 22.89H272.031C272.127 21.054 272.589 19.644 273.417 18.66 274.245 17.676 275.427 17.184 276.963 17.184 277.839 17.184 278.589 17.34 279.213 17.652 279.837 17.964 280.341 18.408 280.725 18.984 281.109 19.548 281.391 20.232 281.571 21.036 281.751 21.828 281.841 22.716 281.841 23.7 281.841 25.8 281.439 27.414 280.635 28.542 279.831 29.658 278.607 30.216 276.963 30.216 276.135 30.216 275.415 30.078 274.803 29.802 274.191 29.514 273.681 29.112 273.273 28.596 272.877 28.068 272.577 27.438 272.373 26.706 272.169 25.962 272.049 25.134 272.013 24.222H269.799V30H268.305V17.4H269.799V22.89zM273.597 23.7C273.597 24.396 273.657 25.056 273.777 25.68 273.897 26.304 274.089 26.856 274.353 27.336 274.617 27.804 274.959 28.182 275.379 28.47 275.811 28.746 276.339 28.884 276.963 28.884 278.079 28.884 278.907 28.464 279.447 27.624 279.987 26.784 280.257 25.476 280.257 23.7 280.257 23.016 280.203 22.362 280.095 21.738 279.987 21.102 279.801 20.55 279.537 20.082 279.285 19.602 278.949 19.224 278.529 18.948 278.109 18.66 277.587 18.516 276.963 18.516 275.847 18.516 275.007 18.942 274.443 19.794 273.879 20.634 273.597 21.936 273.597 23.7z" fill="#fff"/><path d="M.5.5h310v46H.5z" stroke="#fff"/></svg>