<svg width="11" height="12" viewBox="0 0 11 12" fill="none" xmlns="http://www.w3.org/2000/svg"><g clip-path="url(#clip0_1_222)"><path d="M4.25001.166748h5.25C10.1417.166748 10.6667.691748 10.6667 1.33341V10.6667C10.6667 11.3084 10.1417 11.8334 9.50001 11.8334h-5.25C3.60834 11.8334 3.08334 11.3084 3.08334 10.6667V9.50008H4.25001V10.6667h5.25V1.33341h-5.25V2.50008H3.08334V1.33341C3.08334.691748 3.60834.166748 4.25001.166748z" fill="#969696"/><path d="M4.88583 8.09433 5.70833 8.91683 8.625 6.00016 5.70833 3.0835 4.88583 3.906l1.505 1.51083H.75V6.5835H6.39083L4.88583 8.09433z" fill="#969696"/></g><defs><clipPath id="clip0_1_222"><path d="M0 0h9.91667v11.6667H0z" fill="#fff" transform="translate(0.75 0.166748)"/></clipPath></defs></svg>