<svg width="320" height="320" viewBox="0 0 320 320" fill="none" xmlns="http://www.w3.org/2000/svg"><path d="M2 2h316v316H2z" stroke="#fff" stroke-width="4"/><path d="M69.9375 159V115.25h7V159h-7zM80.125 139.25V132.438h4.1875C87.3542 132.438 89 130.958 89.25 128c0-.25.0-.5.0-.75C88.9583 123.958 87.3125 122.229 84.3125 122.062H80.125V115.25h4.75C92.4583 115.375 96.2708 119.333 96.3125 127.125 96.3125 133.167 94.3958 136.938 90.5625 138.438 88.9792 138.979 87.0833 139.25 84.875 139.25 84.7917 139.25 83.2083 139.25 80.125 139.25zM99.75 146.812V126.25C99.75 124.042 100.688 121.792 102.562 119.5 105.062 116.5 108.229 114.979 112.062 114.938V121.875C109.896 121.917 108.271 123.083 107.188 125.375c-.3340000000000032.75-.5 1.375-.5 1.875V146.812C106.688 149.062 107.854 150.729 110.188 151.812 110.896 152.146 111.5 152.312 112 152.312v7C109.625 159.312 107.25 158.458 104.875 156.75 101.5 154.25 99.7917 150.938 99.75 146.812zM115.438 159.312v-7C116.521 152.312 117.646 151.812 118.812 150.812 120.062 149.688 120.708 148.354 120.75 146.812V127.25C120.75 126 120.208 124.792 119.125 123.625 118.083 122.5 116.854 121.917 115.438 121.875V114.938C119.646 114.938 123.021 116.75 125.562 120.375 127.021 122.458 127.75 124.417 127.75 126.25V146.812C127.75 151.438 125.688 154.979 121.562 157.438 119.396 158.688 117.354 159.312 115.438 159.312zM132.75 159V115.25h7V159h-7zM142.938 140.562v-6.25h3.5C150.062 134.312 152.062 132.583 152.438 129.125 152.479 128.75 152.5 128.396 152.5 128.062 152.5 124.562 150.917 122.5 147.75 121.875 147.167 121.792 146.562 121.75 145.938 121.75h-3v-6.5H146.75C152.292 115.375 156.021 117.438 157.938 121.438 158.729 123.104 159.125 125.021 159.125 127.188 159.083 131.812 157.667 135.167 154.875 137.25 157.042 138.5 158.417 140.729 159 143.938 159.083 144.479 159.146 144.979 159.188 145.438L160.25 159h-6.5L152.812 147.875C152.479 144.375 151.542 142.167 150 141.25 149.083 140.792 147.938 140.562 146.562 140.562H142.938zM162.75 122.062V115.25H189.812V122.062h-10V159h-7V122.062H162.75zM193.438 159V115.25h22.75v6.875h-15.75V133.75H210.312v7H200.438V152.062h15.75V159h-22.75zM221.25 159V126.375h.5L228.25 136.812V159h-7zm0-39.25v-4.5H227.062L249.062 150.562V159H245.688L221.25 119.75zM242.062 133.5V115.25h7V143.938h-.5L242.062 133.5z" fill="#fff"/><path d="M80.7494 203.362C80.3094 203.699 79.7521 203.934 79.0774 204.066 78.4028 204.198 77.6841 204.264 76.9214 204.264 75.9974 204.264 75.1321 204.11 74.3254 203.802 73.5188 203.479 72.8148 202.995 72.2134 202.35 71.6121 201.705 71.1354 200.883 70.7834 199.886 70.4314 198.874 70.2554 197.679 70.2554 196.3 70.2554 194.863 70.4461 193.645 70.8274 192.648 71.2234 191.636 71.7368 190.815 72.3674 190.184 73.0128 189.539 73.7314 189.069 74.5234 188.776 75.3154 188.483 76.1221 188.336 76.9434 188.336 77.8234 188.336 78.5421 188.387 79.0994 188.49 79.6568 188.578 80.1334 188.703 80.5294 188.864L80.0894 190.47C79.3854 190.133 78.3808 189.964 77.0754 189.964 76.4741 189.964 75.8801 190.074 75.2934 190.294 74.7068 190.514 74.1788 190.873 73.7094 191.372 73.2548 191.871 72.8881 192.523 72.6094 193.33 72.3308 194.137 72.1914 195.127 72.1914 196.3 72.1914 197.356 72.3234 198.28 72.5874 199.072 72.8514 199.864 73.2108 200.524 73.6654 201.052 74.1348 201.58 74.6774 201.976 75.2934 202.24 75.9241 202.504 76.6061 202.636 77.3394 202.636 77.9994 202.636 78.5714 202.57 79.0554 202.438 79.5541 202.306 79.9721 202.137 80.3094 201.932L80.7494 203.362zM90.1648 199.732H84.4888L82.9488 204H81.1448L86.9748 188.358H87.8108L93.6628 204H91.7488L90.1648 199.732zM85.0828 198.148H89.6148L87.8988 193.462 87.3488 191.13H87.3268L86.7767 193.506 85.0828 198.148zM104.926 196.938H97.5339V204H95.7079V188.6H97.5339V195.31H104.926V188.6H106.752V204H104.926V196.938zM113.349 196.872H112.315V204H110.489V188.6H112.315V195.772L113.305 195.464 118.475 188.6H120.587L115.439 195.222 114.515 195.948 115.637 196.828 121.269 204H118.959L113.349 196.872zM133.646 190.228H128.85V204H127.024V190.228H122.228V188.6H133.646V190.228zM133.486 196.85H138.81V198.478H133.486V196.85zM150.917 190.228H143.811V204H141.985V188.6H152.743V204H150.917V190.228zM156.487 188.6H164.869V190.228H158.313V195.266h6.006V196.894h-6.006V202.372H164.979V204H156.487V188.6zM178.226 190.228H173.43V204H171.604V190.228H166.808V188.6H178.226V190.228zM180.485 188.6H188.867V190.228H182.311V195.266h6.006V196.894h-6.006V202.372H188.977V204H180.485V188.6zM192.28 188.754C192.837 188.622 193.439 188.534 194.084 188.49 194.729 188.446 195.367 188.424 195.998 188.424 196.673 188.424 197.355 188.49 198.044 188.622 198.748 188.754 199.386 188.996 199.958 189.348 200.53 189.7 200.992 190.184 201.344 190.8 201.711 191.416 201.894 192.201 201.894 193.154 201.894 194.093 201.725 194.885 201.388 195.53 201.051 196.175 200.603 196.703 200.046 197.114 199.489 197.51 198.851 197.796 198.132 197.972 197.413 198.148 196.673 198.236 195.91 198.236 195.837 198.236 195.712 198.236 195.536 198.236 195.375 198.236 195.199 198.236 195.008 198.236 194.832 198.221 194.656 198.207 194.48 198.192 194.304 198.177 194.179 198.163 194.106 198.148V204H192.28V188.754zM196.042 190.008C195.661 190.008 195.294 190.015 194.942 190.03 194.59 190.045 194.311 190.081 194.106 190.14V196.52C194.179 196.549 194.297 196.571 194.458 196.586 194.619 196.586 194.788 196.593 194.964 196.608 195.14 196.608 195.309 196.608 195.47 196.608 195.631 196.608 195.749 196.608 195.822 196.608 196.321 196.608 196.812 196.564 197.296 196.476 197.795 196.373 198.242 196.197 198.638 195.948 199.034 195.699 199.349 195.347 199.584 194.892 199.833 194.437 199.958 193.858 199.958 193.154 199.958 192.553 199.841 192.054 199.606 191.658 199.386 191.247 199.085 190.925 198.704 190.69 198.337 190.441 197.919 190.265 197.45 190.162 196.981 190.059 196.511 190.008 196.042 190.008zM204.569 188.6H212.929V190.228H206.395V194.848C206.645 194.804 206.953 194.76 207.319 194.716 207.686 194.672 208.038 194.65 208.375 194.65 209.123 194.65 209.835 194.723 210.509 194.87 211.184 195.002 211.778 195.237 212.291 195.574 212.805 195.911 213.208 196.373 213.501 196.96 213.809 197.532 213.963 198.258 213.963 199.138 213.963 200.018 213.809 200.781 213.501 201.426 213.193 202.057 212.783 202.577 212.269 202.988 211.756 203.384 211.155 203.685 210.465 203.89 209.791 204.081 209.079 204.176 208.331 204.176 208.082 204.176 207.796 204.169 207.473 204.154 207.165 204.154 206.835 204.139 206.483 204.11 206.146 204.081 205.809 204.044 205.471 204 205.149 203.971 204.848 203.919 204.569 203.846V188.6zM208.551 202.592C209.021 202.592 209.468 202.526 209.893 202.394 210.319 202.262 210.685 202.071 210.993 201.822 211.316 201.558 211.565 201.228 211.741 200.832 211.932 200.436 212.027 199.974 212.027 199.446 212.027 198.771 211.917 198.229 211.697 197.818 211.492 197.393 211.213 197.063 210.861 196.828 210.509 196.593 210.099 196.439 209.629 196.366 209.175 196.278 208.698 196.234 208.199 196.234 208.067 196.234 207.913 196.241 207.737 196.256 207.561 196.271 207.385 196.285 207.209 196.3 207.033 196.315 206.872 196.337 206.725 196.366 206.579 196.381 206.469 196.395 206.395 196.41V202.46C206.498 202.489 206.63 202.511 206.791 202.526 206.967 202.541 207.151 202.555 207.341 202.57 207.547 202.585 207.752 202.592 207.957 202.592 208.163 202.592 208.361 202.592 208.551 202.592zM220.999 196.718 221.571 198.676H221.681L222.121 196.652 225.069 188.6H226.939L223.045 198.61C222.649 199.651 222.297 200.524 221.989 201.228 221.696 201.917 221.395 202.482 221.087 202.922 220.779 203.347 220.449 203.655 220.097 203.846 219.745 204.022 219.312 204.11 218.799 204.11 218.315 204.11 217.926 204.073 217.633 204 217.354 203.912 217.09 203.787 216.841 203.626L217.391 202.108C217.684 202.269 217.956 202.372 218.205 202.416 218.454 202.46 218.682 202.482 218.887 202.482 219.298 202.482 219.642 202.277 219.921 201.866 220.2 201.441 220.442 200.817 220.647 199.996L214.949 188.6H217.061L220.999 196.718zM228.825 188.754C229.382 188.622 229.984 188.534 230.629 188.49 231.274 188.446 231.912 188.424 232.543 188.424 233.218 188.424 233.9 188.49 234.589 188.622 235.293 188.754 235.931 188.996 236.503 189.348 237.075 189.7 237.537 190.184 237.889 190.8 238.256 191.416 238.439 192.201 238.439 193.154 238.439 194.093 238.27 194.885 237.933 195.53 237.596 196.175 237.148 196.703 236.591 197.114 236.034 197.51 235.396 197.796 234.677 197.972 233.958 198.148 233.218 198.236 232.455 198.236 232.382 198.236 232.257 198.236 232.081 198.236 231.92 198.236 231.744 198.236 231.553 198.236 231.377 198.221 231.201 198.207 231.025 198.192 230.849 198.177 230.724 198.163 230.651 198.148V204H228.825V188.754zM232.587 190.008C232.206 190.008 231.839 190.015 231.487 190.03 231.135 190.045 230.856 190.081 230.651 190.14V196.52C230.724 196.549 230.842 196.571 231.003 196.586 231.164 196.586 231.333 196.593 231.509 196.608 231.685 196.608 231.854 196.608 232.015 196.608 232.176 196.608 232.294 196.608 232.367 196.608 232.866 196.608 233.357 196.564 233.841 196.476 234.34 196.373 234.787 196.197 235.183 195.948 235.579 195.699 235.894 195.347 236.129 194.892 236.378 194.437 236.503 193.858 236.503 193.154 236.503 192.553 236.386 192.054 236.151 191.658 235.931 191.247 235.63 190.925 235.249 190.69 234.882 190.441 234.464 190.265 233.995 190.162 233.526 190.059 233.056 190.008 232.587 190.008zM249.364 190.228H242.94V204H241.114V188.6h8.25V190.228z" fill="#fff"/><path d="M70 174H249z" stroke="#fff" stroke-width="2"/></svg>